<?xml version="1.0" encoding="UTF-8" standalone="no"?>
<!DOCTYPE svg PUBLIC "-//W3C//DTD SVG 1.1//EN" "http://www.w3.org/Graphics/SVG/1.1/DTD/svg11.dtd">
<svg width="100%" height="100%" viewBox="0 0 500 500" version="1.1" xmlns="http://www.w3.org/2000/svg" xmlns:xlink="http://www.w3.org/1999/xlink" xml:space="preserve" xmlns:serif="http://www.serif.com/" style="fill-rule:evenodd;clip-rule:evenodd;stroke-linejoin:round;stroke-miterlimit:2;">
    <g id="icon" transform="matrix(0.813627,0,0,0.961524,-771.019,-165.201)">
        <rect x="947.632" y="171.811" width="614.532" height="520.008" style="fill:none;"/>
        <clipPath id="_clip1">
            <rect x="947.632" y="171.811" width="614.532" height="520.008"/>
        </clipPath>
        <g clip-path="url(#_clip1)">
            <g transform="matrix(0.768166,0,0,0.65001,947.583,171.811)">
                <path d="M486.974,203.29C505.587,186.04 534.4,187.92 536.515,188.014L657.08,187.967L659.712,14.007L641.521,9.542C629.865,6.675 594.189,0 515.552,0C375.528,0 281.427,98.003 281.427,243.807L281.427,282.961L140.417,282.961L140.417,470.975L281.427,470.975L281.427,800L469.441,800L469.441,470.975L618.066,470.975L643.918,282.961L469.442,282.961L469.442,254.148C469.442,231.258 475.364,214.101 486.974,203.29" style="fill:rgb(254,254,254);stroke:rgb(254,254,254);stroke-width:1.6px;"/>
            </g>
        </g>
    </g>
</svg>
