<?xml version="1.0" encoding="UTF-8" standalone="no"?>
<!DOCTYPE svg PUBLIC "-//W3C//DTD SVG 1.1//EN" "http://www.w3.org/Graphics/SVG/1.1/DTD/svg11.dtd">
<svg width="100%" height="100%" viewBox="0 0 500 500" version="1.1" xmlns="http://www.w3.org/2000/svg" xmlns:xlink="http://www.w3.org/1999/xlink" xml:space="preserve" xmlns:serif="http://www.serif.com/" style="fill-rule:evenodd;clip-rule:evenodd;stroke-linejoin:round;stroke-miterlimit:2;">
    <g id="productFEX" transform="matrix(0.560072,0,0,0.617403,-628.143,-246.961)">
        <rect x="1121.54" y="400" width="892.742" height="809.844" style="fill:none;"/>
        <g id="bouquet" transform="matrix(1.00433,0,0,0.911075,1166.18,440.492)">
            <path d="M718.805,228.357C686.763,228.357 669.516,239.985 655.657,249.326C643.349,257.624 633.627,264.178 612.53,264.178C591.433,264.178 581.713,257.624 569.405,249.326C555.546,239.984 538.299,228.357 506.257,228.357C474.215,228.357 456.969,239.985 443.11,249.326C430.802,257.624 421.08,264.178 399.987,264.178C378.893,264.178 369.173,257.624 356.865,249.326C343.007,239.984 325.76,228.357 293.72,228.357C261.679,228.357 244.434,239.985 230.576,249.326C218.27,257.624 208.55,264.178 187.459,264.178C166.365,264.178 156.643,257.624 144.337,249.326C130.479,239.984 113.233,228.357 81.194,228.357C71.301,228.357 63.283,236.378 63.283,246.268L63.283,326.865C63.283,328.656 63.553,330.381 64.042,332.012L64.028,332.015C86.678,408.06 185.578,500.391 279.999,584.664L279.999,654.207L244.868,777.167C243.325,782.57 244.406,788.386 247.792,792.873C251.176,797.363 256.471,800 262.09,800C286.949,800 299.967,786.473 309.474,776.6C317.765,767.988 321.82,764.18 331.049,764.18C340.281,764.18 344.335,767.988 352.626,776.6C362.131,786.477 375.149,800 400.01,800C424.868,800 437.885,786.473 447.39,776.6C455.679,767.988 459.732,764.18 468.96,764.18C478.19,764.18 482.243,767.988 490.532,776.6C500.037,786.477 513.054,800 537.915,800C543.535,800 548.829,797.363 552.213,792.873C555.599,788.388 556.68,782.572 555.136,777.167L520.005,654.207L520.005,584.664C614.427,500.393 713.327,408.06 735.977,332.017L735.963,332.013C736.452,330.382 736.722,328.657 736.722,326.867L736.722,246.27C736.714,236.378 728.695,228.357 718.805,228.357ZM468.958,728.356C444.101,728.356 431.084,741.883 421.579,751.756C413.29,760.369 409.237,764.177 400.009,764.177C390.777,764.177 386.724,760.369 378.434,751.756C368.929,741.881 355.91,728.356 331.049,728.356C312.438,728.356 300.463,735.936 291.631,743.892L311.421,674.625L488.58,674.625L508.369,743.888C499.538,735.935 487.565,728.356 468.958,728.356ZM315.82,638.805L315.82,594.029L484.177,594.029L484.177,638.805L315.82,638.805ZM495.844,558.208L417.91,558.208L417.91,469.552C417.91,459.662 409.891,451.641 399.999,451.641C390.107,451.641 382.088,459.662 382.088,469.552L382.088,558.208L304.156,558.208C226.112,488.569 145.114,413.609 111.126,351.442C115.633,353.779 119.803,356.582 124.315,359.626C138.175,368.968 155.42,380.596 187.461,380.596C219.501,380.596 236.746,368.968 250.604,359.626C262.91,351.327 272.631,344.774 293.721,344.774C314.815,344.774 324.537,351.327 336.843,359.626C350.701,368.968 367.948,380.596 399.988,380.596C432.03,380.596 449.276,368.968 463.135,359.626C475.443,351.327 485.165,344.774 506.258,344.774C527.354,344.774 537.077,351.327 549.385,359.626C563.244,368.968 580.491,380.596 612.533,380.596C644.575,380.596 661.822,368.968 675.681,359.626C680.199,356.581 684.371,353.776 688.88,351.437C654.889,413.607 573.89,488.568 495.844,558.208ZM700.894,310.296C679.846,313.617 666.678,322.495 655.657,329.924C643.349,338.223 633.627,344.776 612.53,344.776C591.433,344.776 581.713,338.223 569.405,329.924C555.546,320.582 538.299,308.954 506.257,308.954C474.215,308.954 456.969,320.582 443.11,329.924C430.802,338.223 421.08,344.776 399.987,344.776C378.893,344.776 369.173,338.223 356.865,329.924C343.007,320.582 325.76,308.954 293.72,308.954C261.679,308.954 244.434,320.582 230.576,329.924C218.27,338.223 208.55,344.776 187.459,344.776C166.365,344.776 156.643,338.223 144.337,329.924C133.315,322.495 120.151,313.618 99.104,310.296L99.104,266.209C109.095,268.771 116.134,273.517 124.312,279.031C138.173,288.371 155.418,299.999 187.459,299.999C219.5,299.999 236.745,288.371 250.603,279.029C262.909,270.731 272.629,264.178 293.72,264.178C314.813,264.178 324.535,270.731 336.842,279.029C350.699,288.371 367.946,299.999 399.987,299.999C432.029,299.999 449.274,288.371 463.133,279.029C475.441,270.731 485.163,264.178 506.257,264.178C527.352,264.178 537.076,270.731 549.383,279.029C563.243,288.371 580.489,299.999 612.532,299.999C644.574,299.999 661.821,288.371 675.68,279.029C683.861,273.515 690.9,268.768 700.896,266.207L700.896,310.296L700.894,310.296Z" style="fill:rgb(0,158,112);fill-rule:nonzero;"/>
            <path d="M131.947,192.371C132.708,192.47 173.859,192.47 174.62,192.371C215.773,190.015 249.707,159.683 256.298,118.487C256.382,117.953 256.445,117.419 256.481,116.881L263.165,19.134C263.504,14.183 261.773,9.314 258.387,5.687C255,2.058 250.26,0 245.298,0C243.817,0 242.339,0.025 240.867,0.073C204.884,1.259 174.192,17.667 153.275,44.931C132.358,17.677 101.676,1.259 65.7,0.073C64.226,0.025 62.75,0 61.269,0C56.306,0 51.567,2.058 48.18,5.686C44.792,9.311 43.062,14.181 43.401,19.133L50.086,116.879C50.123,117.417 50.184,117.954 50.269,118.486C56.859,159.684 90.794,190.017 131.947,192.371ZM225.979,37.883L220.803,113.569C217.498,132.522 204.395,147.487 187.167,153.651L180.545,111.211C178.878,100.529 176.272,90.444 172.842,81.012C183.304,60.628 200.529,43.605 225.979,37.883ZM145.154,116.736L151.392,156.715L137.109,156.715C111.606,156.715 90.133,138.615 85.765,113.567L80.589,37.881C120.176,46.784 139.892,83.019 145.154,116.736Z" style="fill:rgb(0,158,112);fill-rule:nonzero;"/>
            <path d="M296.801,116.879C296.838,117.417 296.899,117.954 296.984,118.486C303.574,159.681 337.51,190.015 378.665,192.37C379.426,192.468 420.577,192.468 421.338,192.37C462.491,190.014 496.426,159.681 503.016,118.486C503.101,117.951 503.163,117.417 503.199,116.879L509.883,19.133C510.222,14.181 508.491,9.312 505.105,5.686C501.716,2.058 496.977,0 492.015,0C490.533,0 489.055,0.025 487.583,0.073C451.601,1.259 420.909,17.667 399.991,44.931C379.073,17.675 348.393,1.256 312.415,0.073C310.942,0.025 309.467,0 307.985,0C303.023,0 298.284,2.058 294.896,5.686C291.509,9.311 289.779,14.181 290.118,19.133L296.801,116.879ZM472.696,37.883L467.519,113.569C464.215,132.522 451.112,147.487 433.884,153.651L427.262,111.211C425.594,100.529 422.988,90.444 419.559,81.012C430.021,60.628 447.244,43.605 472.696,37.883ZM391.87,116.736L398.107,156.715L383.824,156.715C358.321,156.715 336.848,138.615 332.481,113.567L327.304,37.881C366.891,46.784 386.607,83.019 391.87,116.736Z" style="fill:rgb(0,158,112);fill-rule:nonzero;"/>
            <path d="M751.82,5.686C748.431,2.058 743.692,0 738.73,0C737.249,0 735.77,0.025 734.299,0.073C698.316,1.259 667.624,17.667 646.707,44.931C625.786,17.677 595.108,1.258 559.13,0.073C557.657,0.025 556.182,0 554.7,0C549.738,0 544.999,2.058 541.611,5.686C538.224,9.311 536.494,14.181 536.833,19.133L543.518,116.879C543.555,117.417 543.616,117.954 543.701,118.486C550.291,159.681 584.227,190.015 625.382,192.37C626.143,192.468 667.294,192.468 668.055,192.37C709.208,190.014 743.142,159.681 749.733,118.486C749.817,117.951 749.88,117.417 749.916,116.879L756.6,19.133C756.938,14.181 755.208,9.311 751.82,5.686ZM630.539,156.714L630.539,156.715C605.036,156.715 583.563,138.615 579.196,113.567L574.019,37.881C613.608,46.783 633.324,83.015 638.585,116.734L644.822,156.714L630.539,156.714ZM714.236,113.569C710.931,132.522 697.828,147.487 680.6,153.651L673.978,111.211C672.311,100.529 669.705,90.444 666.275,81.012C676.736,60.626 693.961,43.605 719.411,37.883L714.236,113.569Z" style="fill:rgb(0,158,112);fill-rule:nonzero;"/>
        </g>
    </g>
</svg>
