<?xml version="1.0" standalone="no"?>
<!DOCTYPE svg PUBLIC "-//W3C//DTD SVG 20010904//EN"
 "http://www.w3.org/TR/2001/REC-SVG-20010904/DTD/svg10.dtd">
<svg version="1.0" xmlns="http://www.w3.org/2000/svg"
 width="600.000000pt" height="600.000000pt" viewBox="0 0 600.000000 600.000000"
 preserveAspectRatio="xMidYMid meet">
<metadata>
Created by potrace 1.14, written by Peter Selinger 2001-2017
</metadata>
<g transform="translate(0.000000,600.000000) scale(0.100000,-0.100000)"
fill="#000000" stroke="none">
<path d="M0 3000 l0 -3000 3000 0 3000 0 0 3000 0 3000 -3000 0 -3000 0 0
-3000z m3175 1300 c180 -68 315 -231 376 -455 29 -107 32 -293 5 -380 -49
-161 -181 -327 -339 -425 -31 -19 -56 -37 -56 -40 0 -3 30 -27 67 -55 104 -78
210 -183 262 -260 69 -102 92 -171 97 -290 6 -130 45 -240 127 -355 40 -56 48
-70 43 -70 -2 0 -23 28 -47 63 -24 34 -51 69 -60 77 -10 8 -28 42 -41 74 -17
42 -25 53 -27 39 -7 -50 125 -261 215 -343 109 -100 213 -126 463 -117 129 5
182 12 315 42 88 21 168 38 178 38 9 1 17 4 17 7 0 3 13 5 29 6 38 1 167 53
313 126 65 32 121 58 125 58 5 0 -28 -21 -72 -47 -132 -77 -487 -210 -662
-248 -18 -3 -33 -11 -33 -16 0 -5 10 -7 23 -5 12 3 49 10 81 17 80 15 258 72
358 114 45 19 83 33 85 31 8 -7 -180 -86 -286 -120 -437 -141 -825 -115 -1018
67 -53 50 -112 127 -158 209 l-22 38 -19 -42 c-32 -73 -99 -171 -155 -225
-136 -131 -299 -179 -468 -137 -85 21 -162 62 -232 124 -64 56 -146 170 -159
221 -5 19 -21 72 -35 119 -14 47 -30 129 -35 184 -7 67 -16 108 -29 130 -46
74 -157 157 -295 222 -39 18 -68 33 -65 34 3 0 49 -15 101 -34 113 -40 164
-73 241 -156 31 -34 57 -55 57 -49 0 24 -126 136 -206 183 -154 90 -429 179
-603 194 -47 4 -140 4 -206 0 -66 -4 -160 -7 -210 -8 -49 -1 -154 -10 -233
-21 -79 -11 -149 -18 -155 -16 -17 5 141 32 398 68 121 16 222 33 225 36 8 9
-196 -6 -295 -22 -110 -18 -145 -18 -85 0 127 39 463 65 595 46 94 -13 271
-53 370 -82 162 -49 306 -128 402 -221 36 -36 56 -49 68 -44 10 4 15 12 11 22
-4 11 -1 14 11 12 10 -2 19 -12 21 -22 2 -10 0 -16 -6 -12 -11 7 -38 -21 -28
-31 3 -3 6 -1 6 5 0 7 4 12 9 12 4 0 6 -11 4 -24 -3 -14 2 -46 10 -73 9 -26
19 -84 22 -128 13 -160 74 -305 162 -385 117 -107 258 -145 376 -100 97 37
226 174 243 258 4 18 11 32 16 32 5 0 6 5 3 10 -3 6 -2 10 3 10 5 0 9 14 10
31 0 17 5 36 11 43 5 6 10 21 10 31 0 11 3 35 7 53 8 43 -25 150 -72 228 -48
81 -117 149 -262 259 l-124 94 -51 -25 c-29 -15 -63 -36 -77 -47 -14 -12 -19
-15 -12 -7 6 8 12 17 12 21 0 14 -80 -24 -107 -50 -15 -14 -23 -19 -19 -11 6
11 4 11 -6 -1 -11 -14 -15 -14 -26 -3 -10 11 -32 13 -99 7 -58 -4 -84 -3 -80
4 4 6 -10 13 -34 17 -31 5 -40 10 -37 24 3 14 19 18 94 24 108 8 254 57 296
99 15 14 31 24 35 20 27 -20 -21 22 -64 57 -73 60 -220 210 -252 257 -60 87
-51 85 17 -5 22 -31 53 -67 67 -80 23 -21 25 -22 19 -5 -7 18 -6 18 9 6 29
-23 18 -6 -15 25 -18 16 -26 20 -18 9 14 -18 14 -19 -2 -6 -10 7 -15 17 -13
22 3 4 -13 32 -35 61 -92 122 -125 233 -117 398 14 303 180 530 434 595 83 21
230 14 308 -15z m-2162 -1437 c-7 -2 -19 -2 -25 0 -7 3 -2 5 12 5 14 0 19 -2
13 -5z m-66 -9 c-3 -3 -12 -4 -19 -1 -8 3 -5 6 6 6 11 1 17 -2 13 -5z m1843
-38 c0 -2 -8 -10 -17 -17 -16 -13 -17 -12 -4 4 13 16 21 21 21 13z m-154 -61
c-3 -8 -1 -15 4 -15 5 0 10 8 12 18 2 10 6 13 10 6 4 -6 -8 -27 -27 -47 -19
-21 -35 -33 -35 -29 0 4 5 13 11 19 9 9 15 29 18 56 1 4 4 7 7 7 3 0 4 -7 0
-15z m-61 -105 c-2 -24 -20 -46 -28 -33 -5 8 18 53 27 53 1 0 2 -9 1 -20z"/>
<path d="M2914 4156 c-138 -33 -258 -162 -305 -327 -7 -24 -13 -100 -13 -169
-1 -119 0 -128 28 -183 61 -120 238 -303 366 -377 39 -23 54 -19 141 45 227
166 321 342 291 545 -13 91 -64 250 -95 295 -99 146 -253 210 -413 171z m106
-1063 c0 -7 -58 36 -66 49 -4 7 9 -1 29 -16 20 -16 37 -30 37 -33z"/>
<path d="M3502 3659 c0 -59 -6 -126 -12 -150 -36 -132 -146 -287 -280 -392
-44 -33 -77 -63 -75 -65 11 -11 140 86 199 148 138 146 202 330 177 505 -8 57
-8 54 -9 -46z"/>
<path d="M1930 2811 c228 -76 406 -173 488 -266 31 -35 41 -42 46 -30 12 32
-73 115 -185 179 -48 28 -310 119 -369 130 -23 3 -16 -1 20 -13z"/>
<path d="M2503 2360 c7 -125 27 -210 73 -305 86 -182 250 -297 422 -297 37 0
77 4 89 9 14 5 -18 8 -85 8 -99 0 -112 2 -172 31 -63 30 -152 98 -148 112 1 4
-10 26 -25 49 -15 24 -26 46 -25 50 4 17 -14 53 -24 47 -6 -4 -8 -3 -5 3 4 6
-3 37 -14 69 -12 32 -27 91 -35 129 -30 155 -36 180 -46 190 -7 7 -9 -22 -5
-95z m121 -326 c3 -8 2 -12 -4 -9 -6 3 -10 10 -10 16 0 14 7 11 14 -7z"/>
<path d="M3557 2153 c-13 -63 148 -266 273 -346 68 -43 139 -67 188 -66 26 1
29 3 12 6 -48 7 -145 46 -185 73 -90 62 -159 145 -240 287 -40 70 -43 73 -48
46z"/>
<path d="M2720 1905 c13 -14 26 -25 28 -25 3 0 -5 11 -18 25 -13 14 -26 25
-28 25 -3 0 5 -11 18 -25z"/>
<path d="M3867 1759 c7 -7 15 -10 18 -7 3 3 -2 9 -12 12 -14 6 -15 5 -6 -5z"/>
<path d="M3930 1734 c35 -17 202 -43 274 -44 73 0 30 10 -85 21 -100 9 -132
14 -207 35 -9 2 -1 -3 18 -12z"/>
<path d="M4313 1703 c9 -2 25 -2 35 0 9 3 1 5 -18 5 -19 0 -27 -2 -17 -5z"/>
</g>
</svg>
